<mxfile host="Electron" modified="2024-05-18T07:34:49.504Z" agent="Mozilla/5.0 (Windows NT 10.0; Win64; x64) AppleWebKit/537.36 (KHTML, like Gecko) draw.io/24.4.0 Chrome/120.0.6099.109 Electron/28.1.0 Safari/537.36" etag="wRIuItLBYAY7ur7FwGAf" version="24.4.0" type="device">
  <diagram name="第1頁" id="yjY9xi0w2jYvSDXM2f4n">
    <mxGraphModel dx="819" dy="482" grid="0" gridSize="10" guides="1" tooltips="1" connect="1" arrows="1" fold="1" page="1" pageScale="1" pageWidth="827" pageHeight="1169" math="0" shadow="0">
      <root>
        <mxCell id="0" />
        <mxCell id="1" parent="0" />
        <mxCell id="7Ddi7DHt6a9KAt7SUrbP-1" value="題目: 給一個Matrix後，計算出有幾塊地, 1代表land,0代表water,相鄰的1代表一塊地，總共有多少地" style="rounded=1;whiteSpace=wrap;html=1;" vertex="1" parent="1">
          <mxGeometry x="130" y="29" width="606" height="60" as="geometry" />
        </mxCell>
        <mxCell id="7Ddi7DHt6a9KAt7SUrbP-3" value="無法直接把Matrix的東西當作Ajacent Matrix:&lt;div&gt;不符合定義&lt;/div&gt;" style="rounded=1;whiteSpace=wrap;html=1;" vertex="1" parent="1">
          <mxGeometry x="303" y="99" width="242" height="60" as="geometry" />
        </mxCell>
        <mxCell id="7Ddi7DHt6a9KAt7SUrbP-7" value="DFS" style="rounded=1;whiteSpace=wrap;html=1;" vertex="1" parent="1">
          <mxGeometry x="294" y="423" width="120" height="60" as="geometry" />
        </mxCell>
        <mxCell id="7Ddi7DHt6a9KAt7SUrbP-12" value="&lt;div&gt;需要轉換成Ajacent Matrix 或List的結構?&lt;/div&gt;" style="rounded=1;whiteSpace=wrap;html=1;" vertex="1" parent="1">
          <mxGeometry x="303" y="178" width="242" height="60" as="geometry" />
        </mxCell>
        <mxCell id="7Ddi7DHt6a9KAt7SUrbP-15" value="&lt;blockquote style=&quot;margin: 0 0 0 40px; border: none; padding: 0px;&quot;&gt;&lt;/blockquote&gt;&lt;ol&gt;&lt;li&gt;&lt;span style=&quot;background-color: initial;&quot;&gt;一定要做data structure的轉換嗎?&lt;/span&gt;&lt;/li&gt;&lt;li&gt;&lt;span style=&quot;background-color: initial;&quot;&gt;還是可以直接走&lt;/span&gt;&lt;/li&gt;&lt;/ol&gt;" style="whiteSpace=wrap;html=1;rounded=1;align=left;" vertex="1" parent="1">
          <mxGeometry x="293" y="263" width="262" height="60" as="geometry" />
        </mxCell>
        <mxCell id="7Ddi7DHt6a9KAt7SUrbP-16" value="直接走" style="rounded=1;whiteSpace=wrap;html=1;" vertex="1" parent="1">
          <mxGeometry x="294" y="336" width="120" height="60" as="geometry" />
        </mxCell>
        <mxCell id="7Ddi7DHt6a9KAt7SUrbP-18" value="" style="shape=image;verticalLabelPosition=bottom;labelBackgroundColor=default;verticalAlign=top;aspect=fixed;imageAspect=0;image=data:image/png,iVBORw0KGgoAAAANSUhEUgAAAXMAAAEjCAYAAADANOFlAAAAAXNSR0IArs4c6QAAAARnQU1BAACxjwv8YQUAAAAJcEhZcwAADsMAAA7DAcdvqGQAAD64SURBVHhe7Z0LeBXVvfb/kBDCLRAgQCAIEhIgIPcCAYWoLdCjWFv0tHICrQetnyB9ipzvk+OxRGwPxVahjxzw8ZJTD6QeW4pi0SrxlmghgAhyCxIIgsQECBBIwi0Q/Na79qxk9s6+5cJOMr4/nmHPrFkzs2b2zrv+867/7N3iG4X44OrVq1JRUWEtEUIIaaq0tF5rcOXKFQo5IYQ0E7yKOSJyiDkhhJDmQQ0xv3btGiNyQghpZtQQc0TlhBBCmhduYo6onGJOCCHNDzcxr6ystOYIIYQ0J2pE5oQQQpofFHNCCHEAbmLu5/khQgghTRg3MSeEENI8oZgTQogDoJgTQogDoJgTQogDoJgTQogDoJgTQogDoJgTQogDoJgTQogDoJgTQogDoJgTQogDoJgTQogDoJgTQogDcPt1/gsXLlhzoaOgoEBef/11PWE+Li5Ol48dO1Z+9KMf6VdCCCH+aTQxh3AvXLhQtmzZopeNiOPVlAEsZ2RkVK0nhBBSk0axWbZu3SopKSlatMeNGyd/+tOfJCsrS08Q7kOHDul5rIPop6am6m2cR75kPDReRt21WLJKrSJCCKkDIRdziPO//Mu/6Plf/OIXWryNlbJu3Tp57rnn9LyJyFEH2zz22GP6NTCZsjghQRI8plG3/rPMfXaD5F+2qhFCiIMIuc2CKBsROaJxTz8c0TpAVG4HIg8xR6QOgfcPxHyuZAyfLKlDu1lll+XkzizJ3FMsUYPmyH+9MV+Sw6xVIaB0U7o8+ce10vGf35W0yVYhIYQ0ICGNzGGVGGulNgOb06dP19tg26DtlqQfSNqv0qxpiax8/SN5c0GyyP5V8t9/CibCbziK92fLhux8a4kQQhqekIo5MlbA0qVL9WttMNuYfdSe1pL0YKpMUXNZ+bmuIkIIcQghj8xBXTJTzDb1GggNg6R7YnnsaZnWsh1v6/IlfaYqm5ku+ZUFkvnsXPnBeJcvP37Kg7L4HVvUn5cus1T51Kdz9GLGXFe9hITFas/A2lfVMrDt/3KurH1iltw6BnXGyw/+b4bkas+/VHauflxm3TpK72/UrbPcj2unOEcynnhQplptxNjBoy/nSHGltZ4Q4ghCKuYYwIRdEghfA53BbOuXgpOCPce16+BarhelkvXUXFmZ103uWrBMljx2r/Qvy5KMXzwgSzdZVXqkyL8uXyZpP07Siyn/Z5ksU8vLlt8lrhJ/FEjGQ3Nlg0ySOYvSZM5tMVKwfrHMfGKt5Lz8iDzwp2IZ8eCTsmzxHBkZoQTbflxDieqMUmfJ8k2XZeS/LlHHTZPZoyNly9OzZOZTmeoMCCFOIeTZLP7AQ0IQcgySmqwWO1gXXEaLFyqLJfOlDMmKTpbUu5OtwnqwZZWslbmy5gUlkNOnyb0PLJHVq+bICBVZr12/wSWUUfGScuc0Se7bUW8Sd9M0maaWp905QgLem2zJkPxxK2X1b2bLvXemyvwX1siTd0dJ6XoVkb/YVZ587SWZP0Pta8Z8eelp67iZ9jsI1Rk88e+S0W2+rHl3tSx54F513FSZ8/vV8vKCZMl/9beyylP8CSHNlpCKOSJrf2KMNMSnn35az0PMkcFiB9sGbdHkvimLf73Ymh6VWd+dKnPf66bE7L9kdqJVp15Mk7kLJkuUtaQZniLJg1TMXnBM3wHUD9VBzLDH71EyacIkPZc0Y6ZMi9azLsxxDx9Tkm6x52/yN6XtqTPnSJKHt5R092SZrFq4Yw/HDghxCiEV8169emlB9ud7I3PF5JcjJdGIv9km6CyYzzMlY3WGNW2QY31my+r3V8v8SW7yW3dG95f4GruKkigE4duL6y/mXvYf1dYV4Q8eMEK/VmMd10bxnn2yU90fVPv0tukWl0e/s6j+XQ4hpGkQUjGHjQJWrFihX32B6BtijidBTSRutjH7CMiMlXLw4EE5+MVeeXfpvRKVu1wemZMuuQ018Bfe2stgagPiZ/+tg8iRL71Qpv5Pknt/ZXx6L9O0wM49IaR5EFIxR1Rt8sURdQcL6tYlP10T1lripy+RZQ8ni2xaJUv/+O2wFlyCXyCt44xP72UaXfusIkJI0yTkA6DIF0e0jUjb2yCnJ+bpTzBv3jz9Whfi70+TORNEcl5cKun7rUJNB2ndR70c9eJz59k86HoQTCTd0MQlJkmclMqO3TutEkKIkwm5mEPIzSP5EHM8wu/NQ4dXjqwWCDm28fb4f+2Il9mPzZbkkhxZ9XS6TaQHy2BY0Juy5W9uIl8qmaszxJUhXj/iesXr13MXQpgMOG6STOknkvvqco/OS4HMnj+ubYBBWkJIUyHkYg6MoJvsFnzxFkQdEwS8f//+Vd+qaOrWT8gtBs2R+XNHSOmmVbL4j0bOo2TS91OV1OfI8tmz5PGX18qGdeny+MypsiwsRRrkq1SS4iVFvWx4/t9l1boNkvHrVeL+7TPXgbBkmbMgVZLUeS396Q/kwV+ny9q31LFXWpk9H5YKv3OMEOfQKGIOjEjjS7WQwYJlCLsRcAyAmq/GxXJDMWLefJndr1Rynl8mGVZoGnVbmrz8XKqkdDgka59+XB59dq0UJz4pLy9KFvNVXfUiLlXS1P6TK7bI8oWPyqqd3p5EbXiiJqfJX15bJqlDRQ5tWCqPz39Ulv81X1pPmC+rl81WHRghxCk0+i8NEUIIqT+NFpkTQghpOCjmhBDiACjmhBDiACjmhBDiACjmhBDiACjmhBDiACjmhBDiACjmhBDiACjmhBDiACjmhBDiACjmhBDiACjmhBDiACjmhBDiACjmhBDiACjmhBDiACjmhBDiACjmhBDiACjmhBDiACjmhBDiACjmhBDiACjmhBDiACjmhBDiACjmhBDiACjmhBDiACjmhBDiACjmhBDiACjmhBDiACjmhBDiACjmhBDiACjmhBDiABpNzC8fzpT0X8+VWXfdKqMSEiRBTaNu/YHMmrtc1u4ptmoFR/GetbJ45ni1j1mSnmcV+kEf+4kH5Qe3jtLHTUgYL1MfeFRWvZUvl606hBDSnGjxjcKalwsXLlhz15MCyfz14/Lk6hzxLdkxkvL4y/LS/UnWshcul0pu9lrJWJMua7eYPSXLwrdXy+xEa9ELxe8slgfSMiS3xCpwI0qSZv1W1vxqspojhJDmQyOIeaYsTpgrGZiNSZLJt42Ubq2xcE7y39kgOVUKP0Lmv/4XmXOTtVhFrqSrKDo9O99LZxBAzPevUncCyyVHL8RI8t2pMnlSjFzeskHS/2w6lyhJfvwvsvr+eL1ECCHNgcaxWaKTZNpjq2XzJ2/Kyt+kSdqvMC2T1R+9KfPHWXVkp6x9xyW77hRIQZWQq0j6zslKwoOhQDL+YIRcCfZjL8vq38+R1Dvvldm/WS3vPnevxOl1pZLzp7WSVakXCCGkWdAIYh4v96b/RZY9kCwxYVaRoXWSpE6fZi0o+c3NVRLshbgRMnnWQln59mZ5c/kP1B6DYM/f5G8fWvPDZ8vCB9wtnKjvz5ZU05EcXSvZH1jzhBDSDGgUMU+6SfsqXolq29GaU6jouOaA5GRJ++gvsvJXs2Vyou/9eFKwfYuK9V0kTUiWmm58vCRPGGHNl0rW597uCgghpGnS5FITSy+cs+YUfXoHF3UHQe6RanEePMCItjtJ/QZbc0r8j3rz5D3YmSGLFi2SDNVLlO95W57/3SK9vOg3y+Wve8pddU7tkL++8DtXuZp+l75R8qxVdorV9i8tW1JV76mlK+S1XV5HaQkhpAZNTMzzZe26Dda8yLTRVQZ6PcmXY4etWRkhcX2tWU/6xlX776WXVXweHBdzM+S5tw9LzOg7ZMr4RIm+WiK7166SN/fskIwX18vhyGEy5c4pMiG+vZQf3SQZq7PFLtNFmStkxdqtUhzRTyZMvkPuSBkrsRHFUlR0yapBCCH+aUJiXio7/7BYVm2xFvvNlnunNVSC4GW5fNWalUhp7enVe6OoWE5as4E49uVVmfrIPLnntrEyYWqqzJ85SpRsy2dr10vhkJ/J//upEvIxE2TKT+fIlD5qg+M7ZFuRa1uRw7Jth7oH6DRW7n/kJzLl5rEy9rY75MFHF8mD46OtOoQQ4p8mIualkvW7B+SBlTmuaDh6hMx/eqEkByO6QVEgxdut2WA5elnKrNlARA6dKCPbWwsg/iYZ0BYzvVWk3U8XuWgvowb1Vq8lUnzcVVJFxUUpu2bNa8KlfVSkNU8IIf5pfDG/nCsZv/hnefClnZaQJ0nqb16WOcP12gYiQu3Xmg2WQVESY80Gomcvu2CDNhIJHe7UU/p56HFkmzbWnKGfjBmujnRht2T8IUM27iqSS26iTgghgWlcMT+6QR6/d6YsfifftRyTIgvT/yJpkxv6+cveEjfAmg2WjlFBPwUa7usqtgy3ZvwTO/VhmXdnkkRfyJNN656XJU8tl4wP88TLOCkhhHil8cR8f7o8eN+jsna/a5gx5rb5svrNl2S2n7TFuhMlrauUeZ8UeE1eVxwpsB4qUjRgJk1gwiVmzE9k/hOLZN70CZIYVSJ5WRny3Npcaz0hhPinccRcCfmsny6VLJ37h+9DWSlvrpojycH6GrUmRuL7uJ7vhD+ff9i6E/Ag/6vq8uS+jfE4vxL1YVMk9ZcPy9jOIpf27ZDd1hpCCPFHI4h5vqQ/vUpydG5elCTPfVl/sVWNp0EbmOThKVW2Sc6nOV6eLFVRuSp3MULGjQ2VmJdLuWcOZMto6dRBvYZHKnknhJDAhF7M8U2Hmyz1GjdH0n45Imhvul7cPknuRVog+DBdVr3jrqCl76ySdPO4/213yV01vuDrepEn659ZJL974TXZ+I+tsnXbB/L2S8/JxqPqfmL0BC9PqhJCSE1CLuY5WzdWR8WXdkjGrxfLYp/TKsnyTOGrK2EpMueRaVbHUSBrfzFVZj2RLmvfWivpT8ySqb9Y62pXdLIs/GWq9aVboeBGSRoWK61O58qmzLfl7beyZVdZBxl65zx5eGqsVYcQQvwT8q/AzUxLkLmvWgsBCfz95G5fqRuwPh5MeqQ6n90TnRa55jpk0xBCyPWl8bJZGoUoGfHL1fLumjS5d1KSxFm551FxSZLy44Wy8rXrkRZJCCHXn0b4cQpCCCENzbcsMieEEGdCMSeEEAdAMSeEEAdAMSeEEAdAMSeEEAdAMSeEEAdAMSeEEAdAMSeEEAdAMSeEEAdAMSeEEAfQ5MV8R8kOa44QQogvmpyYv134tpuAP7J9rttyev7L1hwhhBBDkxPzz0t2yn/u/Y215A6E/e+Ff7eWCCGEGJqcmP9rv9n61TMCL7pYpCP0/xjyhFVCCCHE0CS/AhfCDWLbxGoBHxk90q2MEL/szJBFb+Tp2cQfPiWpI/QsCcgOyVi0XqTJXrOm3r7GpUmIOeyTEdEjZHb8A1ZJA5G5WBLmun6DyE7qyoOSNtlaaMIcyf2pzPjaJUpeiXxIXr3lZ9L38l5Zt+8FyTq7Wz6rrFArIqRv2xSZHv9vMr0Hfhk6eKqOafZtlds5XfSC/HbfKxKbkCMLzO+qGkoz5dndz8jGi2Xqvi9RpsT/Vhb07WmtdLF3933y6IUZ8vq4adLeKmswtJAXy4SH58sU9vuaoneXy/ObY+Tup1JlpFXmnfqIZZFs/MPzsumMtVhFYhDHDRaKuT8axWZBlA0bBa/GPkk/nH6dBjfxU3IH5eBB1/TuY8mSMTdBFmdaqxsc/Ixdw+w/IryrJLbqWWPq28K1vmf7RJfYXtwuWWe+VAKsBLzLZElppUT5ghLVPT+XF0/qqsFxcYO84q/zuLBd1m27T+7b+4psrgoBbFzbLCu2p0lOy+ny2zH/I493Edl4cIH8T7G1Hpx+QV440VUeGnwdhFyxY69qf+ckGUoh98uONYtk0ZrrkCmWcLc89dRTVdPdCXmyftFy2ei6sQ6a69Y+B9MoYm7EGxE5WHfz6/rVl6Cj3n/ucx8URb3pn/zILdMlGOIfSJOF40QyNl03NW8weiY+K6+krHOfJi6QZP2uDZH7+o/X9SRqhjx761uyYvxiWTBysSxJeUuWdEREfkT2nDriqhOQMsnas0J1ReJVZAvz5sm0TfPk2XN+9leYJRsqE2V60kMyqmOipAy9X6aoNmwvNtsUyroDr4rELZDptbthIPUgdup8JawNFR3XjpEz71axeYnk7qqlmpNa0yhiDg9c++CXigIKuklV9ExZRD1sv/PMt6v3Ljz0v0owldB3vb9aEFtGSESYNa/pID3bqbAYWFF8IMqPPiMvnhOZ1vMeGWCV2alQx4xtd488qSLu+yOtQk8qL0u5uleI7WQtt+wrPW11y/OflRcqZ8i8Ad7MG+JMRkpSgkhJMcX8ehNyMdfWihLh/xj8RNCC7okZDK0b+VKwRSS5d7y1XE1mWoIkJFRPNa0Sl4Vir5OQVl3Jtf1cgUsPK8d9fb6kz7TKrGnWy/nWuiC5tlfeKtyuBNMWlXtyrUIKC1+RV06oaDhsskzvG4Rwlq2TJXmZcqrDPJnXy+oEPOg7aIW8OH6BTO4YYZX4olBOl1mz145I4SX1ig7lYqasOFIo9wx4SBLr9KmDX6puvW3T8ndtn4OijbJcla0/qObPbJLnUecPG8X7JwX+rvfbeH1777adVdfXcYF17Ko6HseFZ63LqupV2w56nZ9t7dRsm8Lap2eb7DaF6xgZ6goqMKag6uvrdHC9dVxrnQ33dtXeJvGK1daMndayjao2NmT7rH35rafb5CrX16yqbs1jNnVCLub/rYQaeeR/V5F2IEGHtfKOl7xybFtXMtOU2I5bKGkP2MXcJbRzDy+Udy1v/eDK1Breev7LSqZXVvvvB99eKMmvzq0S5cmLUb5SUtU8Bll1ncUYacX+p8rSfivdtq3Znfin/Mif5K9XRNpH3SVTPG2Ko2ky/r1kGf/BJLln3x+1ML84brGktLHW++JanvzvrmckSwn/48Pq6WP3uFWmt9wr63LXSd75I/LZ3j/KRhktKXFdJCf3OdnTZZ78vJtVtzboP8r1Ujz+4Wo/9uEJIpufrxbk2CkyX3u0ar7zBHkYdX45RepnnVuDel1sPrA6boy1VoO2Pb9JYn5orX/qYZkgqjOpIcq58tqfRX6i67gGZyFIroFJ27be+1LNyCGJqqPKld32HR8vlhL1UvLFbtvxdkiuEsPEIV6MlRGp+lj6OlX52+4WTN4bi+Q1+Ym1DnVLZNPzdRU3V1uiY9QJxw6VpM5q/3s997RDPthcItHjb5eRDdQ+Lcx6INxVB9PDKv7Z9Ly3zgTbL5LcIaaueh8658l6Px1rUyTkYj48eoQWbzz8403QIfYGT2vFsLPES9fukxxZekd1NDz31WRZ+KvZ7kKamSFLt3iUT06TlTNUhL0mXUmxi/gHVrtnwSTOllRVJ+dYoAjbdTeQOsG2sdrWvUMJRKGKHrJUVN5BpsV5Ed22Q2V6l2kyPWqIinwrZO/ZFfLvnz0rORet9V4pk6zPHpUVF7vozJeAwh+I1ikyb9g8Sbz4nPxs833y5Jmucv9NS2R62Yuy4tx4mTdggOTs+qncg07nvUnys61K9K9Z2/pECWp2nvpDf1jmT7VJM8T7h0rcDmY3TNTolSIpPuMhiuq4qVXtcLUNolOdXRErU348QaLV3cEH9o+p2k/Sj907l6JiJcMJSTahUtvO9NMBjUiq4T9jwDc6IVEdr7haeHbmSp6qmVTXjA91PvZrPfK76nzUHnNr82enQWe4XvJU5/oTvT91fpO8vGe6vdGSNMznmbsTqH0q2s4+GF0jowljB+gk8rJrijQ+X27vIdrp2XE2cUIu5nf0vENm95vtU9Ah4A2LezbLwbcnSTbE3W6PbFIR94xUma3ePzvxvZNFthRUibkLd7tk7quq6PAxjzqexEscBl3nzpJ0P8kifjmbKVnIHA2fJrf2chW5ETNdFox8XBaMfUleuT1TXuyWKKcv/VXSdm9QHYB38nIfkSVnT8uoXstkQZ+GGZGM6DpDnkzJls3fy5ENKc/Kfd2Oyot5G+WmfvMk9stHZcFJ1U8O/l95dfA90qH0GXlyz3ZrSx8U7ZbcMz7+0L2IW8MSKzGIJN/wcRtvtW3Cdz0i4NgYHb0Xn7BvpMo8TiE2JlpbCTVsG594+s+IetW1+W6S2nu1mBWdKFZ3JzG+O4UA1IjovZ6PD6qsEUzWXY39DslHhyQJk4JOJQ3UvqJduVLiI6PJ692Nt46kR4wqLZHi49ZyMyDkYg6xRj65p6CH7GEgFRGvXpkq8mqGJaz5cuywenl1bpVAm2nq0zmoUIXLE58q2ZPereocEL0HJl5mr0Hd6ruE2vrlecc2ymfqNbHLrTLEVeSHDjKk/12SoubKS7eLd7nMkg1f52mh/+zrn7osGkyfvqCPI5dekBl6OQtLdSZv/+/lr5HzZF7fIskuzpOeMQ/Jz3v2lb4958nPYjrIkTM5steq6xXLRmgcVIT2S3Mb7xIoN+HVbateVz2paNSqUoUXcdVZJuruogR2EbYL4rZei9HBXJelgIhWi5ZL5F32RZHs/qJEogcOrbOY14sqa8SaZnoIr+mQqmwhP5ZQHdF3PN9CQirmEHL44EgptAs6/PGGj8j90DdOxeuGeOndT73MsPnZblOaaHMkc7HLolFR/upa2SPVuDx1NanOJOfpqW53B/45Ip+dRXpfBxnVNbCUa8IjxP9QpVrvJYc9MbyDZeF0sMr878UvZevkFfUXe/9A2EKFcqpCCVhE9QNEXSKU3Fw9JaesZa/oCKmhURG3H2/ak5EzLWEywmt8et023M7bxMs2udlCvrA84qeeulsS9cBtAG9aH9MVhWuLxRJtLfKni6XI351ME0HbIiY6rq8l5AV9x/MtJKRiDislNjJWC7gRdJQFi6lr99F71CWiP1Ig9phb2ymv5ugc69qRKTmwWWrL5DT98FJge8biXJZsRlaIirVHuz9Mqfns8Do5UmktaMpk7xd/deWMR42W0a5CD8bLPM8cdkwjZrhSEyNhl6jl4T6yZgJSJpn7npGy2P+Q+3SqYlfpEK5Kr1abPqcr1F9z5I1enzKtQt9C+7BSauu1egLxs2ZduKJEnyjhfXi8Egqznb+21ZqRkvowvN9i8ZvFZw0iFp/Y6LJYzLlD5CGQu9TdQlN/aEqfA67bDms85Ha3Ac76Ets9xqff7eSHykIq5rBS/mv0SjdBD/ahH3jtwLO+KQ+avHSZhUf8bR55/AOpkioZMndm9WCnRkXjVdksOprPkeyPq2vozBhrvhrLH3d7KClTFrtF4fmSla26k369qwdc/VB+ao/L+uhwk9ykS9wpO/2MzPjoTvm3rUvk2R0L5N8+vFN+flJ9aFsMkfv7Vw+WHjnwoEx7L1l+tgMDqdeX8iNL5MVLM+ShQWYgYoiM79JX8k78Xl4sPCJHClfIK8VlktJ9sn8xh8hZEXGNVMQ3IAQ/qdNj+y7vdJO8ZtvnjjWe9sgOyXBLX3RZGNLFWCYj5XYl7mibe4ZEkWxcE9gy2bHGPQrXXq/qHjy9dXdiZehAdcwvcqXYLkpGIL8oDspicfn1ll0Tcsw5ZPu8i6hX+1Sn67LG3Mc6kD20HgOjHgPRTiHknrmnoAdLj8ge+tWeYx6ckLtnsyTcsVTikTaoUwYNkyXt4LuyUJbKVFMP05o4STXVLK9d2yPW+pwJ3jzzeJk9E5685cEbEXfz5K00Rbc2+OZA2R79mtj2Rq+pg6N7z5NpbZRYl26Qdac3y+5vOsj4TvNkxfiX5L5a2AkNxuUseeHwHpmUOE+G2D5hQ4Y8K092qlAR+30yI3ejtO72rDye6OVWwxNYESYV0fjSVjpgUFaGN6wou8qvVhNS03RKnB1vA3o2H9j43kiXs9crHhKMYOBR9+rtgvv+FHXMYUkqClediptoWwKpymO6Bz5y7NRJolptHT/0OdX6+Kqtvu4i6ts+WGMmFdH9+jr3O3sa7Yu2IMpIRQxG0GGvoAMA2AbROToDfB1ubWwaQkhTgV+a1dCEPDI32CN0f2C9EXI8FWpsFgo5Ic2XonezVdzdsAOf33YaTcyBEXRktXgCEUf5ultcT4RCxJHGiDJsQyEnpLlie+LTKiH1p0n9OIX53hbgKdYQcwo4Ic0Zl7WCQeYaT/SSetMkf2mIEEJI7WhUm4UQQkjDQDEnhBAHQDEnhBAHQDEnhBAHQDEnhBAHQDEnhBAHQDEnhBAH4CbmLVoE+VPuhBBCmhRuYt6yJQN1QghpjlDMCSHEAbipd1hYmDVHCCGkOVEjMg8PD7eWCCGENBdq+CoUc0IIaX7UEHNE5xER9fhFdkIIISHH64gnovNWrVpZS4QQQpo6XsUcQMwZoRNCSPPA7ccpvHHt2jW5evWqngghhDRNAoq5AaJeWVmpXzEFuRkhhJAQELSYE0IIabr49MwJIYQ0HyjmhBDiACjmhBDiACjmhBDiACjmhBDiACjmhBDiACjmhBDiACjmhBDiACjmhBDiACjmhBDiACjmhBDiACjmhBDiACjmhBDiACjmhBDiACjmhBDiACjmhBDiACjmhBDiACjmhBDiACjmhBDiACjmhBDiACjmhBDiACjmhBDiACjmhBDiACjmhBDiACjmhBDiACjmhBDiACjmhBDiACjmhBDiACjmhBDiACjmhBDiACjmhBDiACjmhBDiACjmhBDiACjmhBDiACjmhBDiACjmhBDiACjmhBDiACjmhBDiACjmhBDiACjmhBDiACjmhBDiABpdzNevXy8nTpzQ8++9956eAMqwrry8XC8TQgjxTaOKOQQbYm3E/Pz583oCZp1ZJoQQ4psW3yis+ZBy+PBh2b17txbs9u3bS7t27bSAm3mIONZ1795d4uPjpV+/ftaWhBBCPGkUMYeQb968WQt3IIzN8r3vfU8LeyAuXLggH3/8sZw6dUq+853vyIABA6w1vkF7Pv30U+nYsaNMnDhR2rZta60hhJDmQUjF3NgmiMgRhaemplprfINt4J1DyIcOHaqjdn+dgF3Me/XqJRMmTJCIiAhrbU0qKipk06ZN8vXXX0vXrl0p5oSQZklIPfP3339fD3AaO8UAwUZ0bJ+Mj27qYRnbYh/BAPE/e/asnDx50irxDtaXlpbqqJwQQporIRVzRNaY7EIO4UbkDdvFPhnRN2AbbJucnGyV+Kd169Z6m4KCArl27ZpV6g7KsT4qKko6d+5slRJCSPMj7EmFNX/diY6O1hHzsWPH5MqVKzJw4EApKSnRy0boMdgJEYaQ9+jRQ28DWwav48ePd+sIvIH9Hj16VDp06KC3+eqrr6RLly5et0NUvn//fj24iu0uXrwoffr0kVatWlk1RK5evSoHDx6Ubdu2ydatW/U8IvlOnTq52Te5ubm6E0KnUFhYKDk5OXobnAc6CzPAizJMBw4ckMuXL2trJywszNpLNcePH5ft27fLZ599Jjt27JAvv/xSW0g4rr19KPvggw/kzJkz+nzh/aMdOBccp6ysTNtNnqATy8zM1MdGGwghzZuQRuYQOHteuR2IvJm8CS+8dmyLfQQLRCw8PFz74d5AeWRkpBYziJ8niNw///xz2bt3r64D/x2dDToBCCaE0pNDhw7pzgkdVVJSkraQILC4A4EwQ4wxMBsTEyP79u3T+7aDY6IsOztbi/3gwYN1J9atWze9708++cTrcbHdrl279HHQMbVp00a3GSLvLb0T54AOJjY21iohhDRnQirmEI+6YrJazGswQDghmug8EE3bwbKJ/hHFewPiiSj75ptvljFjxsiNN94ow4cPl3HjxmnxR5RuByILIUX9/v37y8iRI2XYsGG6HIIOgUcZ7gSwv549e+o22MUWETmidnQayODBNqgPewkT6qIT8LSOcIeDsrvuuksPLA8ZMkR3AOfOnZPTp09btVxgHxBz3LHgroEQ0vwJuWd+99136+jbE4ia5+CnHWyDbSFwwdKyZUstwJcuXZKioiKr1AVsBlgosFVatGhhlVaDLBdE7hB7z/bCSoEQokNAPTu9e/d2s18QHaOzQKditzvMHQGib3NXADGGLYRsmsTERN1+O9gekTSibc9ODecyaNAgN3FGXSyjg7ADIYegozMhhDiDkIo5RBr+tz0SNdE6ys3gZ35+vi6zR/LYBnUg9rUBogvRRIRthBc+M4QaAovo3Rs4Hqa8vDzJyMhwm1577TU5cuSI7iQgogaItmeUD5sHooxzwaCsHayzA2FHFI99eEuPxH7QXrTfU8wh2p7Hhl0FH91utaDDwPuADgmROyHEGYRUzJGhAkG2CxGiXkTb8IXtk+dDQtgG22KqDRDMuLg4LWgmOoeYIapGuWf0a6isrNRTQkKCtk28TbAyPHPYvUX5wFe5HaT845jYp6fQGyDynp0IgEduHxgFODecI4Qc0TjAdcS1QAfnL/+eENK8CKmYG5vEiLQRdSzDF7ZP3upgW+yjtsAqQR45LAwIISyWQJEpxBcTBLFv375eJwilL9GtKzgm7iA8xdqA6B2CHqwQG18cHRiicjxMhQ7DW4YLIaT5ElIxx20/RBneOUQa2SmeFobnhDoAA4JG4GsLolZ42RAy2DSITOGV+xNECCa2g+0BAQ0FaA/sGBwTVoonEGMMZqJd3mwYb6AuOjMMkGIwFHYTonJf9hIhpHkSUjE3QLBgpRhxNiJvwLxJT8Qr6iJarw8YDMSgI/LBIYQQOH9ABCF6xcXFVR6+HUT3EMiGBFE+Oh3j1UO87cDnh1WEttcmCwV3IIj2cWeCp2KxvS97iRDSPGmUv2gINMQZETrAPCwUlGPCvBFvpOPVV8gBxA+dBGwWiFkwkS3SC2FT7NmzR3/fC1IVIbJ4SAcP8sCuaGgg5sjAQQeCMYYvvvhC301s2bJFPwSE9iD3vDZgG9hKGLTFIGxd73AIIU2XRg3PTLaKERe82uch7PaMlvoCnxjRdrB+MbJD8MVbSBNEFA5BhbDjqUnkiWNfDQ0iZuSijx07Vh/HZPnAGsKAK+5SajtwiYgfHRjsGwh7sBYNIaT50GjfZ05CCx5EgsVkt7cIIc6Bxum3APjlGPiE1YKJEOI8KObfAiDksGngx3vmohNCnAFtFoeC1EYMoiJvHa+IyPGdMhRzQpwJI3MHg4gcXjkGP/FNjRRyQpwLI3NCCHEAjMwJIcQBUMwJIcQBUMwJIcQBUMwJIcQBUMwJIcQBUMwJIcQBUMwJIcQBUMwJIcQBUMwJIcQBUMwJIcQBUMwJIcQBUMwJIcQBUMwJIcQBUMwJIcQBUMwJIcQBUMwJIcQBUMwJIcQBUMwJIcQBUMwJIcQBUMwJIcQBUMwJIcQBUMwJIcQBUMwJIcQBUMwJIcQBUMwJIcQBtPhGYc2HlLNnz8qhQ4fk5MmTUlZWJleuXJEOHTpI165dJSEhQbp162bV9A22OXz4sBw7dkzOnDkjFRUVEhERIR07dpQbb7xREhMTrZq+yc3NlR07dlhLgUH7Jk6cKG3bttXLFy5ckI8//lhOnTqll32BbW644QZriRBCGpaQR+ZXr16VnTt3SmZmpnzxxRdahCHKAKL+5ZdfSlZWluzfv1+X+aKoqEjef/99+fTTT+X48eNayAFei4uLdWdxPWjRooU15+LatWvSSP0hIYRUEfLI3B7JIhLv3r27hIeHa1GEKJeWlup67dq1k/Hjx+v1niCa37p1q5w7d04vd+7cWUfynTp10mWnT5/W82PGjNHr/VFQUKCP6w90DtgnGDp0qJ4MOI9NmzbpjghROyZv4E6hS5cu1pJvLl++LHv37tUdXFxcnJ4CgY7t6NGj0qpVKxkyZIi0bt1al+NaHjhwQCorK/WyAXcvvXr10tfMs3MihDRPGkXMIX4QE9ggEHLDpUuXZMuWLVpgQVJSkowcOVLPG8rLyyUnJ0dOnDghbdq0kcGDB8uAAQO8RswtW9b/xgN3Dps3b9aRPsQPHUz79u2tte5iPmLECN2e+mAXc1g5gwYN0iLtC9TDXQyuqy8xR7mxhSDsaCuuT8+ePWn9EOIQQm6zQFjGjh2rhdou5CAyMtJNXCDcxoIxwIaBkIOBAwfqyVt02RBCDhDxGssGUbJdyAE6IEygIaNcCDL2a+4+fIH16ADCwsKskppER0frjhMTOgcIPqJz3G0Ye4oQ0rxpFDGPioqylmpiF3jPmwZEn8YSgf0C6+J6gqj866+/1vOIyr1FsYhwTYfjL4KuLbgO2B8sHl83TyjHegi/ibyDAXUx0e8nxDmEXMwDgQFSAyJ1u0AiQjaRKvzn2ghYXQgUlQN7e4290RDgvOH7wxLxFZ2jHOsxZuAvMvcEnQ8icrTX8+6IENI8aVJiDpFBmqEhJibGmnMBD9hYGhg8xTL88zfeeEMyMjL0K/zrkpISXac+YN/mLgAdh6+BSNMegIFdtAPTW2+9Jdu2batXVg3OH9YNom9voBwijlRMTzvKF7Bkjhw5osW8d+/eteoECCFNlyYj5rjlR6qiEdAePXpIbGysnjdAYA2wXLKzsyU/P1/Onz+vy/AKT/3DDz/UUXV9wPYmgwWWjj9ryBsQ8by8PPnggw/0IGRdQEYP7gZw3jhfO1hGOYQcA8H+QLYLBpYxIS0U0Tz8c2xLCHEGTULMIeS7d+/WD/AgwkTUjUE6fyK1Z88euXjxovTr10/GjRun68OWACjHenjedcHuzUNQkXnjCwwkYhAWx09OTtYDu8gSQTlAW5CdUlhYqJdrA6JydGjIQPE8F0TluG7o9AIBuwpWDCZcI2yHa/3VV19ZNQghzZ1GF3PYFIgYTToexHP48OEBRQpCj6wYpAr2799fb3P77bdrIQWIjM3gZW1BtowRT+SN+8sPx7FHjx6tjx8fH69TKW+77Tb53ve+V2UTQdDxpKrdXw8WdGwYG0B7jJUCqwTLiNpxvQJhz2ZBx4MUSpQhYjd3H4SQ5k2jijm87U8++UQLHUDUCHHu06ePXvYHomV4vnYg8H379rWWXAOEtRVQRK0QcyOcOE5dBgkhlsOGDasSW6RZ1iUNEJ42OhR0CGYsAK/Yl/HUawv2ifPCa13vXgghTYtGE3PYBBisNDnjSPtLSUnx+sSnwS5c8LC95ZIjksUEYE/UNvUOomsEDraEryc6gwFtNFYRomlP3ztY0A5knuDJV4g4HlTCfuvjeSNbBtfT8+lQQkjzpFHEHKIEawVWCEQFt/6eT1Z6w4g0qItlEQx2iwXRdaA2BQui4LpmjsB/R6eCzgDWCF4RldvTNmsL7jxwF1LXNhFCmhYhF3OICLI7YIFAjMwj+8FYGRBXY1v4enoRQoxsDYDotTaCB3Gzf/shBLQ+T5KiLYj0ASJrDETWFZNLjoFZnBOW6wqicYwn4Hzrsx9CSNMh5GKOyNdYKxjkRFQerGBiINLYHojuDx486GajoIMwKYkQTjMYCiCq+DbGdevW6RRIb8CXNg/o4C4AnYc/MHjra2ATnc2+ffuq8tBxrsZyqQsYBIVtg/PF2EJtHlCCx440SUw4d6QnogzXMtA5EkKaByH/oi18dzjS4gDExIizNyDy+G5zu70CEceDQoi+EaFie3jHEFR0EiYqR2YJsl1MR4HUR0wAYjhhwoQaQob0QXypFgQY3v3NN9/sV4Bhd+BBIfjhEGt0NrhbwHgA2mLuHPBVAEhbtJ+HL7AvZPbgDgQdnR3YUsirxxeL2e0fnDu+bAvH8/ZFW56+OL81kRDnEXIxx1ORiBCDAeIH0fUUfETf6BTMw0KeIBvmO9/5jputEYyYI2rdvn27nkcngs7AH0bM7daMJ+gUkLrICJgQcj0Juc3SEECskceNyNVEu4igEW3ecsstOqL29KfxcBEeyUc95IZ7E1f7E6bBDHziGMjdxnHt+d6YRxnagdx3Cjkh5HrTaD8bRwghpOFolpE5IYQQdyjmhBDiACjmhBDiACjmhBDiACjmhBDiACjmhBDiACjmhBDiACjmhBDiACjmhBDiACjmhBDiAJq8mBdfKrbmCCGE+KLJifnR8iNuAv7x8Wy35dyzrq/PJYQQUk2TE/PiS6dk+ynX19B6AmE/Wu768QlCCCHVNDkxT+qUpF89I/ALVy/oCH1019FWCSGEEEOT/ApcCDdoG95WC3hMZIxbGSH+wC894ReZAH5xCj9+TQJjfuXqhhtuaJLXrKm3r7FpEmIO+6SrEmwTlTcUX331lf4lIE8mTpyoPxDNgW/Uv0Olh+Rg6UG5ePWitGzRUrq16SbDOg+T9uGuH9D4/Mznkq/q+KJjREeZ2GOSRLSMsEqqOX7xuGwp3iKV19x/xzSsZbiMixknPdr0sEpErqo6+8/tlyPlR6Si8rL+ybmoVlEyodvN0ibc9fN6Zy6f0TZZ2ZUyadWylQzqNEgSohL0OgPWn79aLjd3v0XCWoRZpQ0DhPzIkSP6p/Xwm6nE9ctc+DUs+08KeqM+Yml+utDz17/w046BjhssFHP/NIrNgigbNgpejX2yXy1fj8FN/BLR1KlTJTU1VU8jR47UAg+hvx7gp+TefffdBtv/rjO7ZPeZ3XKp8pJ0iugk4Upkj18oki0nt+gy0EqVtQ5rXWNqaQllOyX63oQcVFRWyLVvrum6btur+nahxbE+PpEteecOaFHv3LqLEvKOUnGtQirVP3D+6nnZqjoGtPGWHreojqC77Du7TwovFOr1oEi1/eSlEzK405AGF3KAH9LGL0DhB7CJb/ATib5+2Lw+4CcZx40bVzXhV7fwc432X/EKhuvVPifTKGJefOmkFu9sFZGD78f9k371JeiI3D0HRVHvnYJ3dEdQG/Dbnr1795bjx49bJU2X05dPy1flR7U4Jscky+09b5d/UteqR9tYOVdxVkfrAMJ4Z+9pbtOtsbdJpBLlcBUdJ0T11/W8cfWbq/KNEvOukV3dtsd7AnvLsLdkr5RcLlHH7iHT9P5vle/2/K5M6TVVdRaun8zDewFxxx1Wt8huKipPkvAW4Uq8T+r16AS+UJF9r7Zx+ngkNOBnFkeNGtUg0XFtufHGG/WPqpeUlFgl5HrRKGIeo/7QXT74+YCCblIVPVMWUQ/b11bMmxPnKs7JlWtXJDoiWmKVgANEs33a99GRNM4dAumNI+VfqutzUYsqLKxAdGjl+i1Vb5xVHUfRxSJpE95WhnceoTsXA9rTQv0DiPDDlHi3b+WyfxDho0MxHCo7JJXfVMqAjgOsEuJ00IEgOr948aJVQq4XYU8qrPmQAFsFt+N92/fV0SUm3IZjGd7qIRVtnrIEGoJv1oM+qg6iQOwD9QDq2CNIO+fOndMRODw2c9sN3w2DY/DcPH23bdu2yUcffVT1S/64ZezYsaO11mWhfPDBB7Jly5aqOpcuXdI/3gyw/T/+8Q9dDz6lff2VK1f0Okxm2/DwcL/eX0lFiRxXIopzhoAbcP5fX/haiWel9G7fu4aFAm99T8keuSbfKPEdJm2tyNkbR88fVRH3GencurObP24H6aBF6j3orjqGfh36WaU1cbX3uPRsE6uPiXbml+Vrz75NWKSK7vdIUvRgfazagvdt165d2r4qKCjQU2VlpX6PAG7jcU0hGrjWhYWFOhrs0qWLjgztwN/dt2+fXt+1q/sdAm7ti4qKqrYzdb/88kuvxwXm2MeOHdPrPY+LzwLWwT+G54u2wf6D0GEdjmn27avNwLNtwBwb7bS3CXXhk+P8cAx85rEd9r9nzx79ucSEY544cUKvAydPntSfeWxr2oVjmvb64tq1a3qbsLCwGtcU5SAiIkK3Fa/2H0AHpo0A17sh2ofxE5wr6viqh+uH9wQ/4I73+NChQ27HxN9ocyHkYg4PGAN6IKnTYL+CDjEwr8CIOewFu+DXRsx37typX4cPH64/eMAILf4gvv/978uIESP0Hwa8dbugHzx4UAvzLbfcIkOHDpWePXtKbm6u/iBDlLEOv/yPD9Ho0aN1PSPkmzdvljZt2uj9m20hUOZD6o2LlRe1iFZ8c0XbEiaTBxHu6Uun9SBl3w59a4j5lyoqLzhfIF2UaA7oOFAPVPoC4gsxx4S7nQPnDsiZijPan0dkDbA/3CV0b9NdD35uO7VN3z3hbqlNWBuJinANNIa1DJOCCwVSWlGqy/A+lV4p1YOg2C8i+7oMcuN64jp3795dD6bFxcXpwU0Ie1lZmRYP/IHiWpeXl+v3ddiwYRIbG+tVFAMJj3k/8YpBPYgwPi/muHg/zeAq2paXlyf9+vXTg649evTQ+8CE9xbHx+cQ7cT7jfbD5jNCjnpoa9++ffW26IzwefPWbuQqoD7WG0GCGGGcAOvM8XCcr7/+Wp8/RBPHR4DRrVs33W6cB64TxhZwXvgsQrTQSUEscQyInrnWaDv+jvyJm69ratqCNmP7s2fP6jLPOhi0RhmuTUO0D0KPuoMGDdIZTaiHv28INq6d6UxwbOwPdfH5Me8hOj1cV3NNmwMhb2WMEiXYI4j2IAyju35Hi7GxXLxZLJ4YIQ8GvNEYkMzIyNATeufBgwfrP1ADyvAhs5ejA0hMTNRvPv54QVJSki434MOHPxh88PyB7fFHig+JAdti//6AeEa3jtaZI7g27xVmyt8L/q4tFF8CDdvlWPkxvf4Gbcf4f4thjWAws7uKytFZIHsGA6z/OPEPKVNCDMxAK96zkxdPStfWXSUyvLXuZD87/Zke1ATIbBnVZZSUXy2XDws/0F75yC4j9Z0CRB32CjqC14++rqZ18vHxj6v27Qv8AeIPFdcZ3q8BogQBxPsLQbseQDwqKir0H7TBiCEwbUOHb+6wICZoJ6JKCIIBYoft7GKIzwRExQgz1qFTsNexg2NDWOz7heCgHG3FBMz1QHldwPnYrzXEFO2v7XXG9UFHh0gcQonzwt+A53uGeew/OjraKvFPoPbhFVk1nhlN2Abb4j1D2+zg82V/D9FOvIfoBJsLIRdzRNcYGPMl6BDwhgQ9uD2bZcKECbJp0yZtiRiMWNijBYBbL3PbbsB8dnZ2VeeAD6tnHU/QQSAqx10BooBggR+d3G289GoXp33p0ooyPaA4rPNwaaVeIdT4Z+fU5VNSdrVMC7Mv28QOxBaDmTd3v1mPW2AeaYYXlVB/df6YVcsFrJPJvSbLxB4TZWqv7+vO5uq1K27vGY6JQdrpfe/Rr11UR3Gg9IDEd4jX7zeEf7hqP7x32DK7znxubekd/DFBUL39oXsTt4YEUSaECFGjNyEzbYOY2IE4o112IcCyEW0DPhMIIhChB4OJKPF5A4gqITgQIQi5aSOOi3abO8/aYu+8gLfz8QXOBzYkpu3bt+vP/k033VTVQfnqkPB3GmznE6h92DfO31tGE7b1FGls6/n5Mu8VrnFzIeRijj983Gp7Cro/X7chgWDDRkE0DmE1UTNE2Qi0mXbs2GFt5QIdwJ///Gf9x2M6h0DRNcAHetKkSbrDMHcJsA2CARYK8r1/2OeHSiCnazFF/vbVbyolMiyyhsXy9fkCnTMOEcX62oLB1p5tXWMAyBkHLa27gN7telftEx2NqYdIHFks3vji3Bc6zbGXqotI3fjumDBfUnHWb3SOPyZEXY0BBAhCBKHB+wWBsgsv2obPj1lnJnTanp27N3FFpAgLAJ9FbAd/1zNi9ARihKgTx4Z4Y58QIog8RBHboxzC6CvCv54g8rWnJg4cONBa48J0SGgj2orzwPl4CnR9MJ3dt42QijmEHCmGSCm0Czq82oaOyP2BHht/XMBEzRBlI9D2CVE96sOfxR8dlmG31IUxY8bofU6cOFF3FPa7g9pw/MJxPfiJuxl7ZgkEFdFuCxWxd4/sbpXWHlgvANE/6KQEHsDD9wYyazzvEMCpS6d0FszAjoPkmvqHnPZI6+EigHnYQkiP9IWJuhoSiJyx04IBggRhMsILPxagbdgPPg92ATOT3QrwBQID1EWAgSgfg7z+okEc01gKxmLB+UAM0YGg3NedTFMBdzJoI6JjtBcEG5UHA/6ev42EVMyRkujKcjhfJei+Bi+9YeraffR21qBgbcCHCB8mA+yUM2fOBHUbaQf1sV1tge+Oh5cC2TPADP4avir/SmeyQAjtGS4AKYTIFEIk3CUycKQD0YaXbcdk0Ii0kM7WPmLb9FB3AxFSqI6LgVCAFEMsA2Sn2DsVgPX7zu5V28ZqOwb2EOog1dJw6epFnbro64EmYG53vVkpEILaeK2e4NrbI2ETJfoCwou7K7Odv7bVFuwLz0AAf2KOwAIDg7AzYBeYc8f2+Eyj3JfF0FQwwRTujGFx4m7ZXMuGAPv35XejA3TqQ2UhFXP4uJN6THIT9GDzxOG1A8/6pjxY8AHCbbDdI8dAGvj000/dxBXRuHmS07z5GPU2IKXJ0wM3kT4+pAZ8qJCSZcAxkAWBeoEiRAww/u2rv0nW8Sw9+PnpqU+1CA+IGqAHHO3goR5Euu1atddZJp7gSVIMPuaczNH7QES8rXirbDi2QT458Ym8X/i+fFT0kR6wxMNB8LkBBkhvaH+DKr8kHx3/SNdBW05cPKGP5fm4PjhcdlguqzuFgR1dt9mwZzBwiqwlrMN04tJJnT8fSMzR+SEitlscEHJ42SZDo7YYuwKZFgb7YDeAqB4+fNhacg3o4bh4zxANo234DKFteD8NqIft7B2FN1DHLtymU/AnbDguzhftsIu2EUiUB2Ox4LNn7JpQY84B5+vrLqI+7UOnC2vswIED+noY8PnB4CvumAJdn+ZIyFMT4ffCP8UfNQQ9WHq27akjc2Sy2PPOUe4LpGQhnRC5oxBTTJjHba3dKsEfJ95g5AIjhdDURdSHevAl8ceCCd6mWY/sF/zh4Y8WKVWohwm2AGwU1EGEAMGB8JttkUeL0XLYLoFAJIyIu/xKmY52kd0ypusYiWvnyqiwg5ROfCcKrpO39RBfpB3iASGz/oyKxBGdY/+XKy/rdMT4qHg9SGmPtnV0rZbho6MuvtCnZ7te+slU870sBmTB7CrZrYXc/qQn5nEuyD1HW3qp7W+KHhow4wYeK/740bGaXG6IJzI/PAcf0bnifcMftD97BvvEoCGE2OQhI+MCKX5me8ybDh3rkR+O7ew+MDxifAaQI232g3p4fyEoAJ9DiJJnm5DLjA7JbIc6wXyPCfaB84QIdu7sytlHGT5riMyRwol2GuypiUbEIJYITNCZecvjtm+P64RyfP5xvt7ANUOb8Pn3TCTwhjk+OiC8h57vVX3bhzbg79L+fACuL8ZA7NuiDHfX2L/9uqMcUTz2Z6/flGm0L9qCfYB0u2AEHeKEL4oC5scqEN3j63BrY9MQQpoGEEt+aVbDElKbxY7dcvEH1hshRw66sVko5IQ0X4wNWReLjHin0b8CFxE6UhOR0WIHIo4BPvPEIEQcmTAog4hTyAlpnpioHFZIMBk/JDia1I9TQNiRjQE8xRpiTgEnpPliRByDzEhAoJA3LE3yl4YIIYTUjkbzzAkhhDQcFHNCCHEAFHNCCHEAFHNCCHEAFHNCCGn2iPx/sSuuxGOZQ/sAAAAASUVORK5CYII=;" vertex="1" parent="1">
          <mxGeometry x="252.01" y="514" width="203.98" height="160" as="geometry" />
        </mxCell>
      </root>
    </mxGraphModel>
  </diagram>
</mxfile>
